# xmcd
#
# Track frame offsets:
#	150
#	15582
#	30273
#	46962
#	60641
#	79121
#	97091
#	119289
#	133763
#	147357
#	164469
#	177641
#
# Disc length: 2623 seconds
#
# Revision: 1
# Processed by: cddbd v1.5.1PL0 Copyright (c) Steve Scherf et al.
# Submitted via: audiograbber 1.83.01
#
DISCID=a10a3d0c
DTITLE=Karen Jo Fields - In Your Pages
DYEAR=2005
DGENRE=Blues
TTITLE0=When We're Together
TTITLE1=In Your Pages
TTITLE2=Your Heart In This
TTITLE3=Butterfly Girl
TTITLE4=Off The Ground
TTITLE5=Into The Night
TTITLE6=Famous Blue Raincoat
TTITLE7=Was It You
TTITLE8=Sweetheart From Your Hometown
TTITLE9=Puchasing New Hearts
TTITLE10=The Rain May Fall
TTITLE11=Love, But It Isn't You
EXTD=
EXTT0=
EXTT1=
EXTT2=
EXTT3=
EXTT4=
EXTT5=
EXTT6=
EXTT7=
EXTT8=
EXTT9=
EXTT10=
EXTT11=
PLAYORDER=
